HIERARCHY
ROOT Hips
{
  OFFSET -31.5692 30.0904 122.763
  CHANNELS 6 Xposition Yposition Zposition Zrotation Xrotation Yrotation
  JOINT LeftUpLeg
  {
    OFFSET 8.64259 1.95398 -2.38835
    CHANNELS 3 Zrotation Xrotation Yrotation
    JOINT LeftLeg
    {
      OFFSET 43.7702 0 0
      CHANNELS 3 Zrotation Xrotation Yrotation
      JOINT LeftFoot
      {
        OFFSET 40.6238 0 0
        CHANNELS 3 Zrotation Xrotation Yrotation
        JOINT LeftToeBase
        {
          OFFSET 12.7242 0 0
          CHANNELS 3 Zrotation Xrotation Yrotation
          End Site
          {
            OFFSET 0 0 0
          }
        }
      }
    }
  }
  JOINT RightUpLeg
  {
    OFFSET -8.2249 1.95398 -2.59336
    CHANNELS 3 Zrotation Xrotation Yrotation
    JOINT RightLeg
    {
      OFFSET 43.5653 0 0
      CHANNELS 3 Zrotation Xrotation Yrotation
      JOINT RightFoot
      {
        OFFSET 40.6238 0 0
        CHANNELS 3 Zrotation Xrotation Yrotation
        JOINT RightToeBase
        {
          OFFSET 12.7242 0 0
          CHANNELS 3 Zrotation Xrotation Yrotation
          End Site
          {
            OFFSET 0 0 0
          }
        }
      }
    }
  }
  JOINT Spine
  {
    OFFSET 0.165834 0.87714 6.61349
    CHANNELS 3 Zrotation Xrotation Yrotation
    JOINT Spine1
    {
      OFFSET 7.38963 1.71661e-005 0
      CHANNELS 3 Zrotation Xrotation Yrotation
      JOINT Spine2
      {
        OFFSET 11.9445 1.14441e-005 0
        CHANNELS 3 Zrotation Xrotation Yrotation
        JOINT Spine3
        {
          OFFSET 14.7254 4.19617e-005 0
          CHANNELS 3 Zrotation Xrotation Yrotation
          JOINT Spine4
          {
            OFFSET 10.9679 0 0
            CHANNELS 3 Zrotation Xrotation Yrotation
            JOINT RightShoulder
            {
              OFFSET 2.46616 -1.6653 3.69651
              CHANNELS 3 Zrotation Xrotation Yrotation
              JOINT RightArm
              {
                OFFSET 13.0012 0 0
                CHANNELS 3 Zrotation Xrotation Yrotation
                JOINT RightForeArm
                {
                  OFFSET 28.7848 1.62311e-005 0
                  CHANNELS 3 Zrotation Xrotation Yrotation
                  JOINT RightHand
                  {
                    OFFSET 26.5688 1.62095e-005 0
                    CHANNELS 3 Zrotation Xrotation Yrotation
                    End Site
                    {
                      OFFSET 0 0 0
                    }
                  }
                }
              }
            }
            JOINT LeftShoulder
            {
              OFFSET 2.38034 -1.29275 -3.7523
              CHANNELS 3 Zrotation Xrotation Yrotation
              JOINT LeftArm
              {
                OFFSET 16.3182 6.07031e-005 0
                CHANNELS 3 Zrotation Xrotation Yrotation
                JOINT LeftForeArm
                {
                  OFFSET 27.0901 0 0
                  CHANNELS 3 Zrotation Xrotation Yrotation
                  JOINT LeftHand
                  {
                    OFFSET 24.5451 1.51738e-005 0
                    CHANNELS 3 Zrotation Xrotation Yrotation
                    End Site
                    {
                      OFFSET 0 0 0
                    }
                  }
                }
              }
            }
            JOINT Neck
            {
              OFFSET 5.0226 -0.0266342 0
              CHANNELS 3 Zrotation Xrotation Yrotation
              JOINT Head
              {
                OFFSET 6.69364 2.86102e-005 0
                CHANNELS 3 Zrotation Xrotation Yrotation
                End Site
                {
                  OFFSET 0 0 0
                }
              }
            }
          }
        }
      }
    }
  }
}
MOTION
Frames:	10
Frame Time:	0.0416667
6.22936 71.5718 -29.8002 82.3494 46.1004 95.6361 -160.808 59.302 79.6954 -98.3298 9.59887 1.44971 96.5874 23.1159 2.10057 31.9661 0.716831 2.60331 169.32 42.9405 101.496 -99.0773 3.55124 -2.2612 101.394 -26.0609 -1.66022 41.431 -5.85623 1.00254 0.331874 10.5475 -89.7114 5.77658 0.783941 0.546183 -5.89424 0.80721 0.511136 -28.4296 0.583559 0.756542 -8.417 0.583552 0.756526 89.484 -17.9962 -113.606 4.70971 16.4695 -44.4665 -25.9095 -27.9907 -52.1992 -53.2854 2.64085 -14.8456 -92.6501 -30.7245 68.5993 -7.97306 -9.50053 -75.8876 13.6849 51.0057 -10.7367 56.5924 -9.13094 -13.0794 25.6742 -0.241868 -2.16397 -2.75824 0.558956 1.37012 
11.7628 74.5845 -35.5012 78.6641 46.9542 97.5796 -163.552 51.1052 82.7516 -92.7651 9.09145 1.03763 102.55 26.3648 -0.827897 34.372 1.52964 3.94739 170.099 40.9665 100.47 -97.8348 -0.311885 -2.48123 88.9227 -19.4124 -7.75229 47.8982 -8.68061 4.98157 0.41255 10.1872 -89.6113 6.49575 0.989215 0.729582 -5.175 1.02036 0.685326 -27.7103 0.724232 0.993146 -7.69768 0.724212 0.993133 89.8161 -17.2922 -113.229 6.77837 19.5741 -41.465 -26.657 -23.6076 -55.1435 -55.232 2.85156 -14.4069 -92.1971 -30.9476 69.5201 -7.01477 -11.0096 -78.9151 19.7663 53.8103 -18.072 57.5695 -10.872 -15.0642 25.5701 -1.19142 -2.90035 -1.68927 -0.0746959 1.35134 
17.8852 77.9616 -41.6278 77.2444 47.5377 98.328 -165.688 41.1928 85.8157 -85.2842 9.42421 0.504984 103.501 27.662 -0.634507 38.1836 3.12818 5.22311 172.084 41.1941 99.619 -99.3582 -3.84957 -2.97354 74.5067 -8.06661 -6.26714 39.6838 -5.7451 8.29311 0.299294 10.0057 -89.537 6.8585 0.795894 0.87961 -4.81246 0.833859 0.843725 -27.3462 0.494764 1.07813 -7.33352 0.494766 1.07813 89.4014 -18.4309 -113.546 8.19815 19.7631 -36.202 -25.9987 -18.4726 -59.724 -55.0955 5.17738 -18.6565 -91.5312 -32.7112 71.4143 -2.03778 -13.1062 -79.6029 22.0988 50.596 -23.6922 59.9671 -12.6179 -17.1159 26.8957 -1.30202 -3.79926 -2.11174 0.17956 0.665144 
24.3948 81.139 -48.0944 75.3745 47.9583 100.404 -166.936 32.5932 89.1778 -77.4831 11.766 0.13336 99.4767 26.5698 1.61802 44.1004 6.1441 4.92617 173.48 42.9117 100.489 -100.963 -8.59392 -3.35724 71.038 -5.92857 -5.83075 21.6969 0.626172 10.1104 0.0929745 9.72749 -89.5212 7.41627 0.393107 0.925045 -4.25493 0.433432 0.906837 -26.7875 0.0969058 1.00041 -6.77486 0.0969294 1.00041 88.0685 -22.9091 -114.028 8.29746 15.2576 -25.7338 -33.2384 -16.8779 -71.5634 -54.7773 4.7307 -18.6741 -90.9318 -31.8762 72.2165 1.8268 -15.3178 -79.3226 26.1089 49.7612 -29.6321 61.4396 -13.0922 -17.0655 26.388 -1.83112 -7.71348 -1.08724 1.12869 2.35294 
31.3627 83.8796 -54.6279 71.5732 48.759 103.372 -167.845 24.6148 91.5402 -67.8103 14.1826 -0.277927 94.8709 24.5662 2.74361 47.6683 7.78707 5.76955 172.642 46.2662 102.179 -97.0089 -3.44319 -2.70146 77.3801 -9.90541 -6.43419 27.5607 -1.19524 8.43389 -0.245302 9.27066 -89.576 8.33293 -0.302725 0.856525 -3.33825 -0.264737 0.869019 -25.872 -0.546152 0.72596 -5.85932 -0.54614 0.725953 88.0043 -26.9105 -112.108 10.8826 4.72807 -13.3742 -35.9588 -13.5101 -79.4861 -50.3787 5.30822 -21.8223 -89.9058 -30.0774 73.5171 2.29046 -16.3217 -80.6138 32.1525 48.8392 -35.1433 63.9356 -14.6325 -17.9572 26.6391 -1.79188 -8.77001 -1.68011 1.57508 2.8983 
38.3336 86.4763 -61.9986 70.6987 48.049 106.08 -167.411 14.7504 95.5509 -56.061 15.8007 -0.53125 87.4616 20.2325 4.41185 53.0119 10.4884 5.05148 172.697 50.5098 104.182 -89.4586 -1.39362 -1.65406 80.3097 -11.5621 -5.28085 27.1932 -0.753839 6.96265 -0.368507 9.00774 -89.9736 8.86078 -0.723263 0.0994521 -2.80995 -0.718189 0.131181 -25.3469 -0.719714 -0.122527 -5.33426 -0.719717 -0.122529 89.3503 -26.4653 -109.544 18.8348 -8.65149 0.968462 -36.7295 -13.2459 -81.7822 -51.6593 5.24919 -21.7763 -89.0137 -28.7316 74.7805 1.46156 -16.845 -81.9529 35.0744 48.4821 -38.7406 63.5921 -16.2624 -20.3813 28.6319 -0.44918 -6.08972 -3.74635 1.92119 1.30441 
45.7078 88.8847 -70.1393 71.9259 46.845 106.895 -166.301 3.88961 98.8615 -42.8851 19.3508 -0.470294 75.2619 12.0337 5.70601 62.5362 14.7582 2.99905 173.897 53.8089 104.23 -78.1874 -4.16222 -0.531172 81.6001 -13.064 -5.64807 26.2852 -0.612166 7.96902 -0.425523 8.91353 -90.4417 9.04157 -1.04598 -0.800818 -2.62918 -1.08019 -0.754007 -25.1643 -0.756949 -1.07814 -5.15161 -0.756949 -1.07814 89.5743 -24.5582 -109.941 31.3509 -13.5059 17.4262 -32.0128 -16.6945 -76.7133 -53.3885 6.14302 -22.7942 -89.2213 -29.5582 74.6546 1.34322 -16.0556 -81.801 33.2358 48.4395 -38.5376 66.0856 -15.821 -18.6421 31.7409 1.85862 -2.22874 -7.06062 2.69577 0.0148013 
53.4641 90.7746 -78.7103 73.4474 44.6091 106.859 -166.701 -5.52541 99.9728 -33.4124 22.2061 0.973895 61.9722 2.30774 5.81839 55.4676 12.0759 -3.06122 175.848 56.1533 103.038 -63.5673 -9.8605 0.621311 76.9068 -10.4238 -5.15258 24.9898 0.0658294 7.20763 -0.596007 8.74859 -90.5598 9.36895 -1.44 -1.00281 -2.30157 -1.48273 -0.938455 -24.8375 -1.07207 -1.38922 -4.82482 -1.07208 -1.3892 85.8087 -26.3379 -116.858 39.0521 -8.06221 29.8236 -24.6751 -20.0045 -67.4551 -53.4426 6.94644 -23.8526 -88.6838 -30.5936 76.0027 0.5265 -11.4031 -79.3036 33.5705 51.3827 -38.4692 66.6912 -15.7457 -17.9339 34.0009 4.10811 -2.40572 -11.0904 4.94055 0.203468 
61.2665 90.9783 -87.1402 75.1126 42.7912 106.187 -170.206 -11.2522 97.9995 -35.0844 23.734 4.76659 57.6872 -1.38165 2.63789 16.7074 -4.89315 -2.16656 177.394 56.6213 101.729 -49.199 -14.6204 1.72925 72.4725 -7.95175 -3.95003 21.7003 1.28301 7.54932 -0.598291 8.74646 -90.817 9.36852 -1.56014 -1.50358 -2.3023 -1.6248 -1.43348 -24.8343 -1.03623 -1.90286 -4.82169 -1.03623 -1.90288 85.0856 -26.5717 -118.198 41.2195 -3.29907 32.2378 -22.3657 -24.485 -59.7575 -56.554 5.80011 -20.5303 -90.2948 -32.6529 73.6524 -4.13478 -5.40442 -75.8611 37.8784 55.6942 -38.8745 62.357 -15.417 -18.9691 36.3093 5.91614 -1.19683 -13.2424 6.11408 0.404779 
69.4813 89.3326 -95.3515 79.7763 41.1783 103.82 -172.603 -16.0086 95.7438 -45.2396 20.5264 7.08982 61.2004 0.941521 5.58124 23.3364 -1.53589 -2.74347 177.712 53.6974 102.942 -42.3939 -13.2004 2.54181 68.8591 -5.17418 -2.28675 22.8816 1.24116 5.93218 -0.503492 8.90077 -90.9623 9.05754 -1.43409 -1.80524 -2.61376 -1.51213 -1.7404 -25.1415 -0.825382 -2.15264 -5.12882 -0.825388 -2.15266 84.5894 -27.9656 -118.401 41.0328 0.0186222 29.1489 -18.4689 -27.4248 -50.7423 -56.016 4.81945 -18.5759 -91.4398 -37.5364 73.1829 -6.20683 1.73077 -71.7517 37.076 57.2749 -39.3083 60.9643 -12.3155 -14.8437 34.7576 6.77124 -1.23171 -12.2268 6.86917 1.27903 
